<svg data-v-423bf9ae="" xmlns="http://www.w3.org/2000/svg" viewBox="0 0 495 90" class="iconLeft"><!----><!----><!----><g data-v-423bf9ae="" id="38fcd448-c918-4da8-98dc-b24176a5bc39" fill="white" transform="matrix(5.934717742604922,0,0,5.934717742604922,106.02374814136431,-5.178042321347)"><path d="M0.67 8.53C0.67 10.16 1.16 11.48 2.00 12.32C2.87 13.19 4.24 13.51 5.81 13.51C6.93 13.51 8.22 13.20 8.89 12.84L9.09 10.50L8.67 10.50C8.27 11.96 7.56 13.02 5.73 13.02C2.84 13.02 2.24 10.18 2.24 8.48C2.24 6.19 3.15 3.89 5.75 3.89C7.18 3.89 8.18 4.48 8.44 6.13L8.86 6.13L8.86 3.95C8.23 3.65 7.17 3.40 5.89 3.40C4.17 3.40 2.79 3.91 1.95 4.84C1.15 5.74 0.67 6.94 0.67 8.53ZM9.69 6.97L10.22 7.04C10.58 7.10 10.67 7.17 10.67 7.67L10.67 11.37C10.67 12.98 11.62 13.47 12.66 13.47C13.85 13.47 14.81 12.66 15.22 12.46L15.36 13.30L17.60 13.30L17.60 12.89C16.63 12.82 16.55 12.80 16.55 12.08L16.55 6.36L16.45 6.27L14.25 6.62L14.25 6.97L14.78 7.04C15.15 7.10 15.23 7.17 15.23 7.67L15.23 10.82C15.23 11.21 15.19 11.52 15.12 11.66C14.80 12.31 14.13 12.71 13.40 12.71C12.59 12.71 11.98 12.21 11.98 11.12L11.98 6.36L11.89 6.27L9.69 6.62ZM18.47 10.96L18.61 12.80C19.11 13.24 19.96 13.47 20.79 13.47C22.46 13.47 23.41 12.59 23.41 11.40C23.41 10.16 22.65 9.60 21.21 9.16C20.64 8.97 19.71 8.68 19.71 7.90C19.71 7.17 20.27 6.76 20.97 6.76C21.97 6.76 22.44 7.53 22.54 8.39L22.95 8.39L22.95 6.75C22.48 6.41 21.77 6.27 21.14 6.27C19.63 6.27 18.59 6.99 18.59 8.32C18.59 9.48 19.54 10.00 20.71 10.35C21.34 10.54 22.22 10.86 22.22 11.82C22.22 12.53 21.66 12.98 20.92 12.98C19.78 12.98 19.15 12.15 18.87 10.96ZM24.35 7.00L25.35 7.00L25.35 11.87C25.35 13.30 26.42 13.47 26.91 13.47C27.62 13.47 28.29 13.10 28.70 12.85L28.59 12.56C28.25 12.70 27.94 12.74 27.59 12.74C27.12 12.74 26.67 12.40 26.67 11.34L26.67 7.00L28.48 7.00L28.48 6.44L26.67 6.44L26.67 4.68L26.26 4.68L25.41 6.44L24.35 6.44ZM29.41 9.87C29.41 12.14 30.52 13.47 32.77 13.47C35.03 13.47 36.13 12.14 36.13 9.87C36.13 7.60 35.03 6.27 32.77 6.27C30.52 6.27 29.41 7.60 29.41 9.87ZM30.87 9.87C30.87 7.94 31.49 6.76 32.77 6.76C34.06 6.76 34.68 7.94 34.68 9.87C34.68 11.80 34.06 12.98 32.77 12.98C31.49 12.98 30.87 11.80 30.87 9.87ZM37.25 13.30L40.67 13.30L40.67 12.89C39.68 12.82 39.62 12.80 39.62 12.08L39.62 8.81C39.62 8.46 39.63 8.26 39.73 8.06C40.00 7.50 40.61 7.03 41.38 7.03C42.59 7.03 42.73 7.91 42.73 8.78L42.73 12.08C42.73 12.80 42.69 12.82 41.68 12.89L41.68 13.30L45.09 13.30L45.09 12.89C44.10 12.82 44.04 12.80 44.04 12.08L44.04 8.81C44.04 8.46 44.06 8.26 44.14 8.04C44.35 7.48 44.95 7.03 45.74 7.03C46.62 7.03 47.15 7.53 47.15 8.78L47.15 12.08C47.15 12.80 47.11 12.82 46.10 12.89L46.10 13.30L49.52 13.30L49.52 12.89C48.52 12.82 48.47 12.80 48.47 12.08L48.47 8.50C48.47 7.08 47.71 6.27 46.38 6.27C45.23 6.27 44.41 7.04 43.92 7.35C43.58 6.69 43.05 6.27 42.07 6.27C40.99 6.27 40.11 6.97 39.62 7.34L39.49 6.27L37.32 6.62L37.32 6.97L37.86 7.04C38.22 7.10 38.30 7.17 38.30 7.67L38.30 12.08C38.30 12.80 38.26 12.82 37.25 12.89ZM50.41 11.48C50.41 12.53 51.11 13.47 52.43 13.47C53.24 13.47 54.07 12.92 54.52 12.63C54.71 13.15 54.94 13.47 55.43 13.47C55.94 13.47 56.55 13.31 57.08 13.05L56.99 12.71C56.80 12.75 56.49 12.78 56.28 12.73C56.03 12.67 55.79 12.40 55.79 11.52L55.79 8.13C55.79 7.32 55.61 6.27 53.49 6.27C51.91 6.27 50.67 7.10 50.67 7.87C50.67 8.32 51.18 8.53 51.45 8.53C51.74 8.53 51.83 8.37 51.90 8.13C52.21 7.10 52.78 6.76 53.34 6.76C53.89 6.76 54.53 7.04 54.53 8.16L54.53 8.75C54.18 9.11 52.82 9.46 51.72 9.81C50.71 10.12 50.41 10.82 50.41 11.48ZM51.83 11.28C51.83 10.63 52.14 10.29 52.92 10.00C53.48 9.79 54.22 9.52 54.53 9.32L54.53 11.30C54.53 12.43 53.66 12.73 53.12 12.73C52.25 12.73 51.83 12.11 51.83 11.28ZM57.50 13.30L60.91 13.30L60.91 12.89C59.92 12.82 59.86 12.80 59.86 12.08L59.86 8.81C59.86 8.46 59.89 8.26 60.00 8.04C60.30 7.49 60.93 7.03 61.67 7.03C62.62 7.03 63.14 7.56 63.14 8.78L63.14 12.08C63.14 12.80 63.10 12.82 62.09 12.89L62.09 13.30L65.51 13.30L65.51 12.89C64.51 12.82 64.46 12.80 64.46 12.08L64.46 8.50C64.46 7.08 63.69 6.27 62.40 6.27C61.36 6.27 60.72 6.78 59.85 7.34L59.65 6.27L57.57 6.62L57.57 6.97L58.10 7.04C58.46 7.10 58.55 7.17 58.55 7.67L58.55 12.08C58.55 12.80 58.51 12.82 57.50 12.89Z"></path></g><!----><g data-v-423bf9ae="" id="46303e6a-8f97-4ee2-97d9-d72d25c4adf1" transform="matrix(2.8125,0,0,2.8125,0,0)" stroke="none" fill="white"><circle cx="16" cy="16.021" r="8.066"></circle><path d="M32 0H0v32h32V0zM16 26.086c-5.551 0-10.066-4.516-10.066-10.065 0-5.55 4.516-10.066 10.066-10.066 5.55 0 10.065 4.516 10.065 10.066.001 5.55-4.515 10.065-10.065 10.065z"></path></g><!----></svg>